<?xml version="1.0" encoding="UTF-8"?>
<svg width="42.104" height="43.104" version="1.1" viewBox="0 0 42.1036 43.104134" xml:space="preserve" xmlns="http://www.w3.org/2000/svg" xmlns:cc="http://creativecommons.org/ns#" xmlns:dc="http://purl.org/dc/elements/1.1/" xmlns:rdf="http://www.w3.org/1999/02/22-rdf-syntax-ns#"><metadata><rdf:RDF><cc:Work rdf:about=""><dc:format>image/svg+xml</dc:format><dc:type rdf:resource="http://purl.org/dc/dcmitype/StillImage"/><dc:title/></cc:Work></rdf:RDF></metadata><g transform="matrix(1.3333 0 0 -1.3333 0 43.104)"><g transform="scale(.1)"><path d="m249.99 221.05h-26.59v36.453c0 36.27-29.515 65.781-65.781 65.781-36.273 0-65.785-29.511-65.785-65.781v-36.453h-26.059c-36.262 0-65.773-29.504-65.773-65.813 0-36.23 29.512-65.742 65.773-65.742h26.059v-23.75c0-36.289 29.512-65.742 65.785-65.742 36.266 0 65.781 29.453 65.781 65.742v23.75h26.59c36.258 0 65.789 29.512 65.789 65.742 0 36.309-29.531 65.813-65.789 65.813zm-133.14 36.453c0 22.473 18.265 40.742 40.746 40.742 22.754 0 41.281-17.949 41.281-40.078 0-22.441-18.527-40.742-41.281-40.742h-4.864v19.933h4.864c11.562 0 21.332 9.54 21.332 20.809 0 11.113-9.571 20.156-21.332 20.156-11.481 0-20.813-9.355-20.813-20.82v-77.949l-19.933-16.231zm81.503-191.76c0-22.461-18.281-40.762-40.757-40.762-22.481 0-40.746 18.301-40.746 40.762v25.352h19.933v-25.352c0-11.484 9.332-20.84 20.813-20.84 11.472 0 20.816 9.3555 20.816 20.84v65.196l19.941 16.015zm51.645 48.77h-27.02v19.961h27.02c11.488 0 20.816 9.316 20.816 20.761 0 11.524-9.328 20.852-20.816 20.852h-39.52c-5.312 0-10.125-1.555-16.613-5.352-1.226-0.683-5.883-4.113-7.554-5.461-39.727-31.914-45.833-36.816-46.325-37.207-1.582-1.25-5.593-4.296-8.347-5.8-7.465-4.551-15.426-7.325-23.036-7.754h-42.863c-22.461 0-40.754 18.281-40.754 40.722 0 22.5 18.293 40.782 40.754 40.782h26.961v-19.93h-26.961c-11.484 0-20.816-9.328-20.816-20.852 0-11.445 9.332-20.761 20.816-20.761 0 0 41.363 0.039 41.336 0.039 4.692 0.254 9.488 1.972 15.074 5.41l5.371 3.808s46.149 37.176 46.188 37.137c0.059 0.063 7.191 5.735 11.031 7.707 8.703 5.086 16.879 7.442 25.738 7.442h39.52c22.484 0 40.758-18.282 40.758-40.782 0-22.441-18.274-40.722-40.758-40.722" fill="#658c14"/></g></g></svg>
