<?xml version="1.0" encoding="UTF-8"?>
<svg width="93.315mm" height="107.07mm" version="1.1" viewBox="0 0 93.315086 107.07011" xmlns="http://www.w3.org/2000/svg" xmlns:cc="http://creativecommons.org/ns#" xmlns:dc="http://purl.org/dc/elements/1.1/" xmlns:rdf="http://www.w3.org/1999/02/22-rdf-syntax-ns#">
<metadata>
<rdf:RDF>
<cc:Work rdf:about="">
<dc:format>image/svg+xml</dc:format>
<dc:type rdf:resource="http://purl.org/dc/dcmitype/StillImage"/>
</cc:Work>
</rdf:RDF>
</metadata>
<g transform="translate(-31.271 -178.7)">
<g transform="matrix(1.0298 0 0 -1.1462 1.6199 198.82)">
<g transform="scale(.1)">
<g transform="translate(-771.18 -1158.4)" fill="#bf2519">
<path d="m1785.2 875.25c-148.11 99.059-352.17 79.098-352.17 79.098-12.15 19.765-10.82 47.576-10.82 52.496 0 4.96-5.98 9.38-7.54 0.41-7.19-41.535 0.98-68.687 7.23-86.266 6.13-17.652 24.61-10.367 43.01-8.808 222.26 19.043 266.4-31.559 266.4-31.559-5.5-52.832 9.85-114.94 20.69-125.33 2.73-2.578 11.36-3.07 12.11 5.074 5.74 60.528 19.29 94.184 23.98 101.86 4.73 7.582-0.59 11.426-2.89 13.031"/>
<path d="m1333.3 1213.1c1.13-10.11 6.21-11.3 11.13 0.87 3.83 9.37 6.52 45.29 2.03 60.5 0 0 33.44-7.75 93.24-66.29 8.17-8.03 15.59-1.33 10.7 10.35-3.75 9.05-45.39 123.6-177.34 114.93-5.31-0.4-4.8-4.41-1.33-8.68 4.14-5.35 57.42-74.02 61.57-111.68"/>
<path d="m1255.9 1142.8c-0.82-7.82 2.89-8.58 8.6-0.54 4.37 6.08 11.87 20 11.52 36.08 0 0 27.5-23.99 49.76-72.58 4.07-8.83 11.29-6.09 9.11 4.65-1.76 9.02-4.93 110.39-92.78 150.35-7.69 2.4-8.51-5.39-5.78-9.96 2.77-4.65 23.4-69.24 19.57-108"/>
<path d="m1346.1 763.22c58.67-2.621 92.38 13.922 96.44 16.558 4.03 2.696 5.24 7.192 2.15 6.875-2.73-0.23-4.57-0.308-10.51 0.04-5.04 0.277-239.02-38.633-229.8 199.61 1.37 34.253 13.67 51.543 13.67 51.543 15-4.36 35.12 2.48 28.67 7.13-25.47 23.46-19.92 98.24-19.92 98.24 0.39 10-7.19 8.33-9.18 2.5 0 0-37.23-85.64-40.51-170.53-6.52-167.05 97.5-208.84 168.99-211.97"/>
<path d="m1385.1 675.29c-23.44-26.211-69.53-56.523-139.33-49.063-154.73 16.563-163.68 150.38-168.99 190.38-4.34 31.954 0.16 76.762 1.29 87.461 1.09 10.766-7.89 8.969-9.18 3.266-1.37-5.766-8.75-45-9.69-85.492-3.28-141 76.21-227.45 188.71-227.45 109.11 0 141.53 66.171 143.75 75 2.15 8.789-1.87 11.093-6.56 5.898"/>
<path d="m1491.1 788.41c-12.15-0.258-11.72-4.613-5.74-6.137 129.37-32.437 171.32-106.75 159.61-218.78-1.25-11.562-2.62-4.492-3.17-0.078-16.8 121.88-103.32 175.51-194.61 178.94-58.28 2.149-104.65-35.468-109.76-42.383-5.2-6.953 0.19-8.125 3.75-5.585 3.63 2.46 18.47 11.367 29.25 15.546 138.56 53.977 228.21-80.507 246.22-157.97 17.73-76.25 6.48-112.34 1.68-145.12-1.65-10.625 9.76-7.851 12.69-1.132 4.65 10.429 55.47 130.08 44.81 223.2-18.29 158.86-171.92 159.68-184.73 159.48"/>
<path d="m1308.2 698.54c6.01 0.664 6.99 6.563 0.23 7.11-74.69 6.796-170.31 40-172.15 201.98-3.63 28.867 3.71 74.625 4.11 85 0.39 10.411-6.25 8.121-9.07 0.625-2.73-7.582-22.07-53.008-16.05-137.64 15.9-223.57 215.19-154.5 192.93-157.08"/>
<path d="m1480.6 1198.1c-4.22 4.66-8.79 13.05-10.43 35.71 0 0 79.61 33.63 174.61-4.69 0 0 6.06-74.9 19.34-91.39 0 0 54.45-0.89 105.37 30.45 28.71 17.72 10.35-57.77 10.35-57.77s19.37 16.35 55.27 8.6c89.81-19.34-1.6-156.29-1.6-156.29l-0.82-0.355c-114.86 5.355-183.93 111.94-304.2 117.58-94.26 4.36-98.71-23.67-104.1-49.41-1.25-5.86-5.82-5.39-6.56-0.86-1.33 7.69-10.51 60.45 13.4 85.33 0 0 24.18 9.01 70.82 6.84 139.8-6.51 220.35-128.97 299.47-132.66 0 0 77.58 89.328 12.85 107.05-19.06 5.2-60.31-6.6-66.89-2.38-1.53 0.89-4.65 3.14-1.8 8.08 11.78 21.25 7.4 33.89 7.01 35.79-3.26 13.67-39.24-16.37-97.68-10.83 0 0-30.93 73.75-36.48 97.78 0 0-24.73 7.83-127.58-27.78-6.72-2.3-9.33 0.1-10.35 1.21"/>
<path d="m1682.3 852.39c-22.27 11.566-55 23.203-92.93 24.589-32.5 1.153-78.28-3.125-111.88-1.582-113.78 5.317-156.71 67.11-154.6 118.5 0.97 21.425 4.49 34.235 6.13 41.505 1.64 7.32-3.79 7.46-7.46 3.75-3.64-3.63-26.49-36.06-28.13-75.525-2.89-67.715 50.63-127.35 128.67-130.86 78.01-3.692 159.61 17.461 193.29 17.051 38.39-0.485 44.14-10 59.18-11.875 11.01-1.29 12.69 5.703 12.61 9.414 0 0.664-0.11 2.578-4.88 5.039"/>
<path d="m1629.2 1134.7c-31.91 37.54-75 66.17-81.13 66.17-6.17 0-34.22-6.21-34.22-11.29 0-2.42 34.61-10.9 56.99-28.99 0 0-23.36-8.12-9.64-29.96 25.5-6.71 49.64-18.88 59.1-23.71 19.53-10 22.3 12.04 8.9 27.78"/>
<path d="m1962.9 909.16c-7.93-0.625-20.11-1.515-26.36-1.515-158.75 0-241.23 108.74-366.39 122.28-72.23 7.86-108.4-11.07-115.59-11.84-7.18-0.75-9.76-10.04-0.93-8.94 8.82 1.1 25.58 3 49.33 3 136.25 0 232.66-119.26 388.23-119.26 38.47 0 68.32 7.089 73.16 12.382 1.44 2.207 1.44 4.043-1.45 3.887"/>
</g>
</g>
</g>
</g>
</svg>
